<?xml version="1.0" encoding="UTF-8" standalone="no"?>
<!-- Created with Inkscape (http://www.inkscape.org/) -->

<svg
   width="206mm"
   height="124.158mm"
   viewBox="0 0 206 124.15799"
   version="1.1"
   id="svg5"
   xml:space="preserve"
   inkscape:export-filename="DactChemical.svg"
   inkscape:export-xdpi="96"
   inkscape:export-ydpi="96"
   inkscape:version="1.2 (dc2aedaf03, 2022-05-15)"
   sodipodi:docname="logo.svg"
   xmlns:inkscape="http://www.inkscape.org/namespaces/inkscape"
   xmlns:sodipodi="http://sodipodi.sourceforge.net/DTD/sodipodi-0.dtd"
   xmlns="http://www.w3.org/2000/svg"
   xmlns:svg="http://www.w3.org/2000/svg"><sodipodi:namedview
     id="namedview7"
     pagecolor="#ffffff"
     bordercolor="#000000"
     borderopacity="0.25"
     inkscape:showpageshadow="2"
     inkscape:pageopacity="0.0"
     inkscape:pagecheckerboard="0"
     inkscape:deskcolor="#d1d1d1"
     inkscape:document-units="mm"
     showgrid="false"
     inkscape:zoom="0.5"
     inkscape:cx="541"
     inkscape:cy="478"
     inkscape:window-width="1920"
     inkscape:window-height="1027"
     inkscape:window-x="1358"
     inkscape:window-y="-8"
     inkscape:window-maximized="1"
     inkscape:current-layer="layer1" /><defs
     id="defs2" /><g
     inkscape:label="Capa 1"
     inkscape:groupmode="layer"
     id="layer1"><text
       xml:space="preserve"
       style="font-size:24.6944px;fill:#52b708;fill-opacity:1;stroke:#52b708;stroke-width:0.529167;stroke-dasharray:none;stroke-opacity:1"
       x="78.176163"
       y="123.44776"
       id="text1627"><tspan
         sodipodi:role="line"
         id="tspan1625"
         style="font-style:normal;font-variant:normal;font-weight:normal;font-stretch:normal;font-size:24.6944px;font-family:'Century Gothic';-inkscape-font-specification:'Century Gothic';fill:#52b708;fill-opacity:1;stroke:#52b708;stroke-width:0.529167;stroke-dasharray:none;stroke-opacity:1"
         x="78.176163"
         y="123.44776">CHEMICAL</tspan></text><g
       id="g3095"
       transform="matrix(3.1332616,0,0,3.1332616,-206.33428,-182.2565)"><path
         style="fill:#52b708;fill-opacity:1;stroke-width:0.0825847"
         d="m 84.748872,66.596346 c 0,0 11.087913,-5.021005 16.228898,-6.316688 4.76134,-1.200002 12.0201,-2.107236 13.98558,-2.1113 1.98925,-0.0041 8.71332,0.199574 12.69114,3.087509 4.14797,3.011474 3.90135,6.903313 3.93928,7.722689 0.0431,0.932128 -0.13213,3.615986 -2.23316,6.860054 -1.65538,2.555954 -7.48119,7.655269 -7.48119,7.655269 0,0 4.23696,-5.305702 5.8009,-8.295566 1.25106,-2.391733 1.39431,-4.606323 1.37333,-5.767635 -0.022,-1.219674 -0.65244,-4.136282 -3.40258,-6.085323 -2.61399,-1.852546 -7.01233,-2.997359 -10.7788,-3.10232 -4.50639,-0.12558 -9.06925,0.03575 -13.49481,0.89465 -5.727018,1.111475 -16.628588,5.458661 -16.628588,5.458661 z"
         id="path495"
         inkscape:highlight-color="#3143f8"
         sodipodi:nodetypes="cssssscssssac" /><path
         style="fill:#52b708;fill-opacity:1;stroke-width:0.0778142"
         d="m 83.647582,68.626309 c 0,0 10.44741,-4.730966 15.291421,-5.951804 4.486307,-1.130684 11.325777,-1.985511 13.177707,-1.98934 1.87434,-0.0039 8.21,0.188045 11.95804,2.909158 3.90836,2.837516 3.676,6.504542 3.71173,7.276587 0.0406,0.878283 -0.12449,3.407108 -2.10416,6.463782 -1.55976,2.408309 -7.04904,7.213061 -7.04904,7.213061 0,0 3.99221,-4.999217 5.46581,-7.816371 1.1788,-2.253575 1.31378,-4.340238 1.294,-5.434467 -0.0207,-1.149219 -0.61474,-3.897349 -3.20603,-5.733803 -2.46299,-1.745534 -6.60727,-2.824217 -10.15617,-2.923114 -4.24608,-0.118326 -8.54536,0.03368 -12.715286,0.84297 -5.396188,1.04727 -15.668022,5.143341 -15.668022,5.143341 z"
         id="path495-4"
         inkscape:highlight-color="#3143f8"
         sodipodi:nodetypes="cssssscssssac" /><path
         style="fill:#52b708;fill-opacity:1;stroke-width:0.0719493"
         d="m 82.606692,70.803485 c 0,0 9.659996,-4.374395 14.138916,-5.503219 4.148182,-1.045466 10.472162,-1.835865 12.184512,-1.839405 1.73307,-0.0036 7.59121,0.173872 11.05675,2.689896 3.61382,2.623654 3.39894,6.014299 3.43198,6.728156 0.0375,0.812087 -0.11511,3.150316 -1.94556,5.976611 -1.4422,2.226795 -6.51776,6.669417 -6.51776,6.669417 0,0 3.69133,-4.62243 5.05386,-7.227257 1.08995,-2.083724 1.21475,-4.013117 1.19646,-5.024874 -0.0192,-1.062604 -0.5684,-3.603608 -2.96438,-5.30165 -2.27736,-1.613974 -6.10929,-2.611357 -9.3907,-2.702801 -3.92606,-0.109408 -7.9013,0.03114 -11.756944,0.779436 -4.989481,0.968338 -14.487134,4.75569 -14.487134,4.75569 z"
         id="path495-6"
         inkscape:highlight-color="#3143f8"
         sodipodi:nodetypes="cssssscssssac" /><path
         style="fill:#333333;fill-opacity:1;stroke-width:0.0825847"
         d="m 112.70306,77.557286 c 0,0 -11.08791,5.021005 -16.228889,6.316688 -4.761347,1.200002 -12.020109,2.107236 -13.985579,2.1113 -1.98925,0.0041 -8.71332,-0.199574 -12.69114,-3.087509 -4.14798,-3.011474 -3.90136,-6.903313 -3.93928,-7.722689 -0.0431,-0.932128 0.13212,-3.615986 2.23316,-6.860054 1.65538,-2.555954 7.48119,-7.655269 7.48119,-7.655269 0,0 -4.23696,5.305702 -5.8009,8.295566 -1.25107,2.391733 -1.39432,4.606323 -1.37333,5.767635 0.022,1.219674 0.65243,4.136282 3.40258,6.085323 2.61399,1.852546 7.01233,2.997359 10.7788,3.10232 4.50639,0.12558 9.069242,-0.03575 13.494809,-0.89465 5.727019,-1.111475 16.628579,-5.458661 16.628579,-5.458661 z"
         id="path495-46"
         inkscape:highlight-color="#3143f8"
         sodipodi:nodetypes="cssssscssssac" /><path
         style="fill:#333333;fill-opacity:1;stroke-width:0.0778142"
         d="m 113.80436,75.527323 c 0,0 -10.44741,4.730966 -15.291425,5.951804 -4.486311,1.130684 -11.325773,1.985511 -13.177703,1.98934 -1.87434,0.0039 -8.21,-0.188045 -11.95804,-2.909158 -3.90837,-2.837516 -3.676,-6.504542 -3.71173,-7.276587 -0.0406,-0.878283 0.12449,-3.407108 2.10416,-6.463782 1.55976,-2.408309 7.04904,-7.213061 7.04904,-7.213061 0,0 -3.99221,4.999217 -5.46581,7.816371 -1.1788,2.253575 -1.31378,4.340238 -1.294,5.434467 0.0207,1.149219 0.61474,3.897349 3.20603,5.733803 2.46299,1.745534 6.60727,2.824217 10.15617,2.923114 4.24608,0.118326 8.545352,-0.03368 12.715282,-0.84297 5.396186,-1.04727 15.668026,-5.143341 15.668026,-5.143341 z"
         id="path495-4-4"
         inkscape:highlight-color="#3143f8"
         sodipodi:nodetypes="cssssscssssac" /><path
         style="fill:#333333;fill-opacity:1;stroke-width:0.0719493"
         d="m 114.84525,73.350147 c 0,0 -9.66,4.374395 -14.13892,5.503219 -4.148181,1.045466 -10.472158,1.835865 -12.184508,1.839405 -1.73307,0.0036 -7.59121,-0.173872 -11.05676,-2.689896 -3.61381,-2.623654 -3.39894,-6.014299 -3.43197,-6.728156 -0.0375,-0.812087 0.11511,-3.150316 1.94556,-5.976611 1.4422,-2.226795 6.51776,-6.669417 6.51776,-6.669417 0,0 -3.69133,4.62243 -5.05386,7.227257 -1.08995,2.083724 -1.21475,4.013117 -1.19646,5.024874 0.0192,1.062604 0.5684,3.603608 2.96438,5.30165 2.27736,1.613974 6.10929,2.611357 9.3907,2.702801 3.926052,0.109408 7.901299,-0.03114 11.756938,-0.779436 4.98948,-0.968338 14.48714,-4.75569 14.48714,-4.75569 z"
         id="path495-6-8"
         inkscape:highlight-color="#3143f8"
         sodipodi:nodetypes="cssssscssssac" /></g><text
       xml:space="preserve"
       style="font-style:normal;font-variant:normal;font-weight:normal;font-stretch:normal;font-size:24.6944px;font-family:'Century Gothic';-inkscape-font-specification:'Century Gothic';fill:#333333;fill-opacity:1;stroke:#333333;stroke-width:0.529167;stroke-dasharray:none;stroke-opacity:1"
       x="-1.893765"
       y="123.44776"
       id="text171"><tspan
         sodipodi:role="line"
         id="tspan169"
         x="-1.893765"
         y="123.44776"
         style="font-style:normal;font-variant:normal;font-weight:normal;font-stretch:normal;font-size:24.6944px;font-family:'Century Gothic';-inkscape-font-specification:'Century Gothic';fill:#333333;fill-opacity:1;stroke:#333333;stroke-width:0.529167;stroke-dasharray:none;stroke-opacity:1">DACT</tspan></text></g></svg>
